<?xml version="1.0" encoding="UTF-8"?>
<svg width="626px" height="85px" viewBox="0 0 626 85" version="1.1" xmlns="http://www.w3.org/2000/svg" xmlns:xlink="http://www.w3.org/1999/xlink">
    <!-- Generator: Sketch 48 (47235) - http://www.bohemiancoding.com/sketch -->
    <title>bcs-logo-2</title>
    <desc>Created with Sketch.</desc>
    <defs></defs>
    <g id="Welcome" stroke="none" stroke-width="1" fill="none" fill-rule="evenodd">
        <g id="bcs-logo-2">
            <g id="logo-mark">
                <path d="M0.304291041,84.8809441 C1.58860075,84.523922 2.8012113,83.8405039 3.81102539,82.8306898 L30.6021329,56.0395822 C30.7908964,55.8508188 30.9682548,55.6549691 31.1342081,55.4528895 C32.4657724,54.0240636 33.2804491,52.1071708 33.2804491,50 L33.2804491,30.3690226 L35.2154898,28.8312292 C39.2679175,25.6107302 45.4196249,23 48.9557129,23 L92.1736247,23 C95.7097127,23 95.9231146,25.6107302 92.6502713,28.8312292 L61.5387345,59.4451824 C59.8903672,61.0671865 57.5478341,62.5345147 55.0908842,63.5915291 C55.0636863,63.6034424 39.346983,70.1306063 7.94077417,83.1730208 C5.08547648,84.3098469 2.37266636,84.8791546 0.304291041,84.8809441 Z" id="Combined-Shape" fill-opacity="0.210000008" fill="#081826" opacity="0.773267663" transform="translate(47.638071, 53.940472) scale(-1, 1) translate(-47.638071, -53.940472) "></path>
                <path d="M102.69518,29.0472155 L84.7574316,11.3673583 C82.8916029,9.52835463 79.8664968,9.52835463 78.0006681,11.3673583 C76.1348394,13.206362 76.1348394,16.1879761 78.0006681,18.0269798 L99.2524291,38.9732043 C99.263169,38.9837898 99.2739474,38.9943144 99.2847637,39.0047781 C99.29538,39.0154389 99.3060581,39.0260622 99.316798,39.0366478 C101.182627,40.8756515 104.207733,40.8756515 106.073561,39.0366478 L127.325322,18.0904233 C129.191151,16.2514196 129.191151,13.2698055 127.325322,11.4308018 C125.459494,9.59179811 122.434388,9.59179811 120.568559,11.4308018 L102.69518,29.0472155 Z M102.69518,55.975787 L84.7574316,38.2959298 C82.8916029,36.4569261 79.8664968,36.4569261 78.0006681,38.2959298 C76.1348394,40.1349334 76.1348394,43.1165475 78.0006681,44.9555512 L99.2524291,65.9017757 C99.263169,65.9123612 99.2739474,65.9228858 99.2847637,65.9333495 C99.29538,65.9440103 99.3060581,65.9546337 99.316798,65.9652192 C101.182627,67.8042229 104.207733,67.8042229 106.073561,65.9652192 L127.325322,45.0189947 C129.191151,43.179991 129.191151,40.1983769 127.325322,38.3593732 C125.459494,36.5203695 122.434388,36.5203695 120.568559,38.3593732 L102.69518,55.975787 Z M133.717151,52.4131137 C133.694629,52.4358786 133.671929,52.4585363 133.649051,52.4810851 L108.408714,77.3585421 C105.46536,80.2595797 100.69324,80.2595797 97.7498858,77.3585421 L73.3346198,53.2942943 C71.3268764,51.9597726 70.006483,49.697348 70.006483,47.1309627 L70.006483,8.1309627 C70.006483,4.02827598 73.3808814,0.702391268 77.5434128,0.702391268 L128.417689,0.702391268 C132.580221,0.702391268 135.954619,4.02827598 135.954619,8.1309627 L135.954619,47.1309627 C135.954619,49.1972807 135.098658,51.0665525 133.717151,52.4131137 Z" id="Combined-Shape" fill="#FFFFFF"></path>
            </g>
            <path d="M170.34505,44.08 L177.796175,44.08 C179.354588,44.08 180.462506,43.7560032 181.119961,43.108 C181.777417,42.4599968 182.106139,41.3680077 182.106139,39.832 L182.106139,27.304 C182.106139,25.7679923 181.777417,24.6760032 181.119961,24.028 C180.462506,23.3799968 179.354588,23.056 177.796175,23.056 L174.581964,23.056 C171.221636,23.056 169.541498,24.8799818 169.541498,28.528 L169.541498,43.288 C169.541498,43.8160026 169.809346,44.08 170.34505,44.08 Z M160.264117,50.488 L160.264117,2.896 C160.264117,1.88799496 160.775463,1.384 161.798172,1.384 L168.007442,1.384 C169.030151,1.384 169.541498,1.88799496 169.541498,2.896 L169.541498,19.096 L169.833699,19.096 C170.369403,17.7999935 171.319047,16.8160034 172.682658,16.144 C174.046269,15.4719966 175.48291,15.136 176.992622,15.136 L179.33023,15.136 C183.177562,15.136 186.148242,16.1439899 188.24236,18.16 C190.336477,20.1760101 191.38352,23.079981 191.38352,26.872 L191.38352,40.264 C191.38352,44.056019 190.336477,46.9599899 188.24236,48.976 C186.148242,50.9920101 183.177562,52 179.33023,52 L161.798172,52 C160.775463,52 160.264117,51.496005 160.264117,50.488 Z M219.136381,52 L212.63491,52 C208.787577,52 205.816897,50.9920101 203.72278,48.976 C201.628662,46.9599899 200.581619,44.056019 200.581619,40.264 L200.581619,27.016 C200.581619,23.223981 201.628662,20.3200101 203.72278,18.304 C205.816897,16.2879899 208.787577,15.28 212.63491,15.28 L219.136381,15.28 C222.935013,15.28 225.893518,16.2999898 228.011986,18.34 C230.130453,20.3800102 231.189671,23.2719813 231.189671,27.016 L231.189671,40.264 C231.189671,44.0080187 230.130453,46.8999898 228.011986,48.94 C225.893518,50.9800102 222.935013,52 219.136381,52 Z M214.022864,44.152 L217.748427,44.152 C219.30684,44.152 220.414757,43.8400031 221.072213,43.216 C221.729668,42.5919969 222.058391,41.5120077 222.058391,39.976 L222.058391,27.304 C222.058391,25.7679923 221.729668,24.6880031 221.072213,24.064 C220.414757,23.4399969 219.30684,23.128 217.748427,23.128 L214.022864,23.128 C212.464451,23.128 211.368708,23.4399969 210.735603,24.064 C210.102498,24.6880031 209.78595,25.7679923 209.78595,27.304 L209.78595,39.976 C209.78595,41.5120077 210.102498,42.5919969 210.735603,43.216 C211.368708,43.8400031 212.464451,44.152 214.022864,44.152 Z M258.942532,52 L252.441061,52 C248.593728,52 245.623048,50.9920101 243.528931,48.976 C241.434813,46.9599899 240.38777,44.056019 240.38777,40.264 L240.38777,27.016 C240.38777,23.223981 241.434813,20.3200101 243.528931,18.304 C245.623048,16.2879899 248.593728,15.28 252.441061,15.28 L258.942532,15.28 C262.741164,15.28 265.699669,16.2999898 267.818137,18.34 C269.936604,20.3800102 270.995822,23.2719813 270.995822,27.016 L270.995822,40.264 C270.995822,44.0080187 269.936604,46.8999898 267.818137,48.94 C265.699669,50.9800102 262.741164,52 258.942532,52 Z M253.829015,44.152 L257.554578,44.152 C259.112991,44.152 260.220908,43.8400031 260.878364,43.216 C261.535819,42.5919969 261.864542,41.5120077 261.864542,39.976 L261.864542,27.304 C261.864542,25.7679923 261.535819,24.6880031 260.878364,24.064 C260.220908,23.4399969 259.112991,23.128 257.554578,23.128 L253.829015,23.128 C252.270602,23.128 251.174859,23.4399969 250.541754,24.064 C249.908649,24.6880031 249.592101,25.7679923 249.592101,27.304 L249.592101,39.976 C249.592101,41.5120077 249.908649,42.5919969 250.541754,43.216 C251.174859,43.8400031 252.270602,44.152 253.829015,44.152 Z M281.727977,23.2 L278.805967,23.2 C278.221562,23.2 277.81979,23.104001 277.600638,22.912 C277.381486,22.719999 277.271912,22.3360029 277.271912,21.76 L277.271912,16.792 C277.271912,15.783995 277.783258,15.28 278.805967,15.28 L281.727977,15.28 C282.263681,15.28 282.531529,15.0160026 282.531529,14.488 L282.531529,7.648 C282.531529,6.63999496 283.067226,6.136 284.138635,6.136 L290.274855,6.136 C291.297563,6.136 291.80891,6.63999496 291.80891,7.648 L291.80891,14.488 C291.80891,15.0160026 292.101108,15.28 292.685513,15.28 L298.383432,15.28 C299.40614,15.28 299.917487,15.783995 299.917487,16.792 L299.917487,21.76 C299.917487,22.2880026 299.807913,22.6599989 299.588761,22.876 C299.369609,23.0920011 298.967837,23.2 298.383432,23.2 L292.685513,23.2 C292.101108,23.2 291.80891,23.4639974 291.80891,23.992 L291.80891,39.904 C291.80891,41.3920074 292.149808,42.4599968 292.831613,43.108 C293.513419,43.7560032 294.633512,44.08 296.191925,44.08 L299.113934,44.08 C300.136643,44.08 300.64799,44.583995 300.64799,45.592 L300.64799,50.56 C300.64799,51.0880026 300.538415,51.4599989 300.319263,51.676 C300.100112,51.8920011 299.698339,52 299.113934,52 L294.65787,52 C290.810538,52 287.827682,50.9920101 285.709215,48.976 C283.590747,46.9599899 282.531529,44.0800187 282.531529,40.336 L282.531529,23.992 C282.531529,23.4639974 282.263681,23.2 281.727977,23.2 Z M333.076066,45.592 L333.076066,50.56 C333.076066,51.0880026 332.966492,51.4599989 332.74734,51.676 C332.528188,51.8920011 332.126416,52 331.542011,52 L320.657525,52 C316.810193,52 313.839512,50.9920101 311.745395,48.976 C309.651278,46.9599899 308.604235,44.056019 308.604235,40.264 L308.604235,27.016 C308.604235,23.223981 309.651278,20.3200101 311.745395,18.304 C313.839512,16.2879899 316.810193,15.28 320.657525,15.28 L331.542011,15.28 C332.564719,15.28 333.076066,15.783995 333.076066,16.792 L333.076066,21.76 C333.076066,22.2880026 332.966492,22.6599989 332.74734,22.876 C332.528188,23.0920011 332.126416,23.2 331.542011,23.2 L322.118529,23.2 C320.608817,23.2 319.525249,23.5239968 318.867794,24.172 C318.210338,24.8200032 317.881615,25.9119923 317.881615,27.448 L317.881615,39.832 C317.881615,41.3680077 318.210338,42.4599968 318.867794,43.108 C319.525249,43.7560032 320.608817,44.08 322.118529,44.08 L331.542011,44.08 C332.564719,44.08 333.076066,44.583995 333.076066,45.592 Z M355.057958,52 L353.304752,52 C349.45742,52 346.48674,50.9920101 344.392622,48.976 C342.298505,46.9599899 341.251462,44.056019 341.251462,40.264 L341.251462,27.016 C341.251462,23.223981 342.298505,20.3200101 344.392622,18.304 C346.48674,16.2879899 349.45742,15.28 353.304752,15.28 L370.179358,15.28 C371.250767,15.28 371.786463,15.783995 371.786463,16.792 L371.786463,50.488 C371.786463,51.496005 371.250767,52 370.179358,52 L364.043138,52 C363.020429,52 362.509082,51.496005 362.509082,50.488 L362.509082,48.112 L362.216881,48.112 C361.681177,49.4080065 360.731533,50.3799968 359.367922,51.028 C358.004311,51.6760032 356.56767,52 355.057958,52 Z M362.509082,38.608 L362.509082,23.992 C362.509082,23.4639974 362.216884,23.2 361.63248,23.2 L354.765757,23.2 C353.207344,23.2 352.111601,23.5239968 351.478496,24.172 C350.84539,24.8200032 350.528843,25.9119923 350.528843,27.448 L350.528843,39.832 C350.528843,41.3680077 350.84539,42.4599968 351.478496,43.108 C352.111601,43.7560032 353.207344,44.08 354.765757,44.08 L357.468616,44.08 C360.828944,44.08 362.509082,42.2560182 362.509082,38.608 Z M390.188893,52 L383.979622,52 C382.956914,52 382.445567,51.496005 382.445567,50.488 L382.445567,16.792 C382.445567,15.783995 382.956914,15.28 383.979622,15.28 L390.188893,15.28 C391.211602,15.28 391.722948,15.783995 391.722948,16.792 L391.722948,19.168 L392.015149,19.168 C392.599554,18.0159942 393.585722,17.0800036 394.973684,16.36 C396.361646,15.6399964 397.95656,15.28 399.758475,15.28 L401.803882,15.28 C406.040817,15.28 409.084547,16.8159846 410.935162,19.888 C412.590976,16.8159846 415.439907,15.28 419.482041,15.28 L421.600498,15.28 C425.350429,15.28 428.187185,16.2879899 430.110851,18.304 C432.034517,20.3200101 432.996336,23.223981 432.996336,27.016 L432.996336,50.488 C432.996336,51.496005 432.484989,52 431.46228,52 L425.25301,52 C424.230301,52 423.718955,51.496005 423.718955,50.488 L423.718955,27.448 C423.718955,25.9119923 423.402407,24.8200032 422.769302,24.172 C422.136196,23.5239968 421.040454,23.2 419.482041,23.2 L417.655785,23.2 C414.295457,23.2 412.615318,25.0479815 412.615318,28.744 L412.615318,50.488 C412.615318,51.496005 412.079621,52 411.008212,52 L404.871992,52 C403.849283,52 403.337937,51.496005 403.337937,50.488 L403.337937,27.448 C403.337937,25.9119923 403.009214,24.8200032 402.351759,24.172 C401.694303,23.5239968 400.586386,23.2 399.027973,23.2 L396.763415,23.2 C393.403087,23.2 391.722948,25.0239818 391.722948,28.672 L391.722948,50.488 C391.722948,51.496005 391.211602,52 390.188893,52 Z M451.106564,61.792 L444.897294,61.792 C443.874585,61.792 443.363239,61.3120048 443.363239,60.352 L443.363239,16.792 C443.363239,15.783995 443.874585,15.28 444.897294,15.28 L451.106564,15.28 C452.129273,15.28 452.640619,15.783995 452.640619,16.792 L452.640619,19.168 L452.93282,19.168 C453.468525,17.8719935 454.418169,16.9000032 455.78178,16.252 C457.145391,15.6039968 458.582032,15.28 460.091744,15.28 L463.086804,15.28 C466.836735,15.28 469.673492,16.2879899 471.597158,18.304 C473.520824,20.3200101 474.482642,23.223981 474.482642,27.016 L474.482642,40.264 C474.482642,44.056019 473.520824,46.9599899 471.597158,48.976 C469.673492,50.9920101 466.836735,52 463.086804,52 L460.091744,52 C458.582032,52 457.145391,51.6760032 455.78178,51.028 C454.418169,50.3799968 453.468525,49.4080065 452.93282,48.112 L452.640619,48.112 L452.640619,60.352 C452.640619,61.3120048 452.129273,61.792 451.106564,61.792 Z M457.681086,44.08 C454.320758,44.08 452.640619,42.2560182 452.640619,38.608 L452.640619,28.672 C452.640619,25.0239818 454.320758,23.2 457.681086,23.2 L460.895297,23.2 C462.45371,23.2 463.561628,23.5239968 464.219083,24.172 C464.876538,24.8200032 465.205261,25.9119923 465.205261,27.448 L465.205261,39.832 C465.205261,41.3680077 464.876538,42.4599968 464.219083,43.108 C463.561628,43.7560032 462.45371,44.08 460.895297,44.08 L457.681086,44.08 Z M506.902746,52 L493.899803,52 C493.217997,52 492.877099,51.6640034 492.877099,50.992 L492.877099,48.472 C492.877099,47.8479969 493.217997,47.536 493.899803,47.536 L506.172243,47.536 C509.970875,47.536 511.870162,46.1440139 511.870162,43.36 L511.870162,41.992 C511.870162,39.4479873 510.628321,37.6960048 508.1446,36.736 L499.524671,33.136 C497.040951,32.127995 495.263413,30.9400068 494.192004,29.572 C493.120595,28.2039932 492.584898,26.3920113 492.584898,24.136 C492.584898,18.2319705 495.872126,15.28 502.446681,15.28 L514.426921,15.28 C515.108727,15.28 515.449624,15.6159966 515.449624,16.288 L515.449624,18.808 C515.449624,19.4320031 515.108727,19.744 514.426921,19.744 L503.396334,19.744 C501.64312,19.744 500.316053,20.1039964 499.415096,20.824 C498.514138,21.5440036 498.063666,22.3839952 498.063666,23.344 L498.063666,24.568 C498.063666,26.5840101 499.451607,28.1199947 502.22753,29.176 L510.847459,32.992 C513.37988,33.9520048 515.096544,35.2239921 515.997501,36.808 C516.898459,38.3920079 517.348931,40.5759861 517.348931,43.36 C517.348931,49.1200288 513.866904,52 506.902746,52 Z M532.829351,62.512 L529.54209,62.512 C528.860284,62.512 528.519386,62.1760034 528.519386,61.504 L528.519386,16.288 C528.519386,15.6159966 528.860284,15.28 529.54209,15.28 L532.829351,15.28 C533.511156,15.28 533.852054,15.6159966 533.852054,16.288 L533.852054,19.096 L534.144255,19.096 C535.361765,16.5519873 537.845449,15.28 541.59538,15.28 L545.978394,15.28 C549.290022,15.28 551.85893,16.2159906 553.685195,18.088 C555.51146,19.9600094 556.424579,22.5759832 556.424579,25.936 L556.424579,41.344 C556.424579,44.7040168 555.51146,47.3199906 553.685195,49.192 C551.85893,51.0640094 549.290022,52 545.978394,52 L541.59538,52 C537.845449,52 535.361765,50.7280127 534.144255,48.184 L533.852054,48.184 L533.852054,61.504 C533.852054,62.1760034 533.511156,62.512 532.829351,62.512 Z M540.645727,47.392 L544.955691,47.392 C549.095226,47.392 551.164962,45.3040209 551.164962,41.128 L551.164962,26.152 C551.164962,21.9759791 549.095226,19.888 544.955691,19.888 L540.645727,19.888 C538.454208,19.888 536.77407,20.4639942 535.60526,21.616 C534.43645,22.7680058 533.852054,24.3999894 533.852054,26.512 L533.852054,40.768 C533.852054,42.8800106 534.43645,44.5119942 535.60526,45.664 C536.77407,46.8160058 538.454208,47.392 540.645727,47.392 Z M584.761842,52 L578.479521,52 C575.119193,52 572.477236,51.0640094 570.55357,49.192 C568.629904,47.3199906 567.668085,44.7040168 567.668085,41.344 L567.668085,25.936 C567.668085,22.5759832 568.629904,19.9600094 570.55357,18.088 C572.477236,16.2159906 575.119193,15.28 578.479521,15.28 L584.761842,15.28 C588.12217,15.28 590.764127,16.2159906 592.687793,18.088 C594.611459,19.9600094 595.573278,22.5759832 595.573278,25.936 L595.573278,41.344 C595.573278,44.7040168 594.611459,47.3199906 592.687793,49.192 C590.764127,51.0640094 588.12217,52 584.761842,52 Z M579.063923,47.392 L584.17744,47.392 C588.268274,47.392 590.313661,45.3280206 590.313661,41.2 L590.313661,26.08 C590.313661,21.9519794 588.268274,19.888 584.17744,19.888 L579.063923,19.888 C574.973089,19.888 572.927703,21.9519794 572.927703,26.08 L572.927703,41.2 C572.927703,45.3280206 574.973089,47.392 579.063923,47.392 Z M608.935241,19.888 L604.917478,19.888 C604.235672,19.888 603.894774,19.5760031 603.894774,18.952 L603.894774,16.288 C603.894774,15.6159966 604.235672,15.28 604.917478,15.28 L608.935241,15.28 C609.422245,15.28 609.665744,15.0640022 609.665744,14.632 L609.665744,8.44 C609.665744,7.76799664 610.006641,7.432 610.688447,7.432 L613.975708,7.432 C614.608813,7.432 614.925361,7.76799664 614.925361,8.44 L614.925361,14.632 C614.925361,15.0640022 615.193209,15.28 615.728914,15.28 L623.472239,15.28 C624.202746,15.28 624.567993,15.6159966 624.567993,16.288 L624.567993,18.952 C624.567993,19.5760031 624.202746,19.888 623.472239,19.888 L615.728914,19.888 C615.193209,19.888 614.925361,20.1039978 614.925361,20.536 L614.925361,41.272 C614.925361,45.3520204 617.068147,47.392 621.353782,47.392 L624.202742,47.392 C624.933248,47.392 625.298496,47.7279966 625.298496,48.4 L625.298496,51.064 C625.298496,51.6880031 624.933248,52 624.202742,52 L620.69633,52 C617.336002,52 614.65752,51.0760092 612.660803,49.228 C610.664087,47.3799908 609.665744,44.8000166 609.665744,41.488 L609.665744,20.536 C609.665744,20.1039978 609.422245,19.888 608.935241,19.888 Z" id="bootcampspot" fill="#FFFFFF"></path>
        </g>
    </g>
</svg>